# xmcd
#
# Track frame offsets:
# 150
# 13949
# 27375
# 42177
# 55721
# 70193
# 84201
# 100398
# 114259
# 128404
# 139808
# 151972
# 164013
# 179340
# 193499
# 204930
# 219253
#
# Disc length: 3136 seconds
#
#
# Revision: 0
# Processed by: cddbd v1.5.2PL0 Copyright (c) Steve Scherf et al.
# Submitted via: FreeRIP 2.80 
#
DISCID=e60c3e11
DTITLE=Bonde do Forró - Vol. 4
DYEAR=1900
DGENRE=Country
TTITLE0=Agarra Agarra
TTITLE1=Diz pro meu Olhar
TTITLE2=Agora Vai
TTITLE3=Ainda Sinto o Beijo Dela da Primeira Vez
TTITLE4=Teu Sorriso a Tua Voz
TTITLE5=Despois Daquele Beijo
TTITLE6=Passou da Conta
TTITLE7=90% de Você em Mim
TTITLE8=A Nossa História de Amor
TTITLE9=Cabaré Ambulante
TTITLE10=O Site da Maria Birinyte
TTITLE11=Ó meu Amor
TTITLE12=Banho de Espuma
TTITLE13=Primeiro Amor
TTITLE14=Aprenda Coração
TTITLE15=Um Anjo
TTITLE16=Me Esqueça
EXTD=
EXTT0=
EXTT1=
EXTT2=
EXTT3=
EXTT4=
EXTT5=
EXTT6=
EXTT7=
EXTT8=
EXTT9=
EXTT10=
EXTT11=
EXTT12=
EXTT13=
EXTT14=
EXTT15=
EXTT16=
PLAYORDER=
